<svg viewBox="0 0 187 37" fill="none" xmlns="http://www.w3.org/2000/svg">
<path d="M1.5 25V11.66H4.22V22.8H10.3V25H1.5ZM20.9584 12.4L22.4184 12.56L14.2584 25H11.1984L20.4384 11.66H29.6984V13.84H23.6784V17.18H28.8984V19.38H23.6784V22.8H29.6984V25H20.9584V12.4ZM21.9784 21.7H14.6584L15.7184 19.62H22.1784L21.9784 21.7ZM35.1347 20.92L34.3547 18.9L40.0147 11.66H43.4347L35.1347 20.92ZM32.5547 25V11.66H35.2747V25H32.5547ZM37.8347 16.96L43.8547 25H40.3947L35.7347 18.7L37.8347 16.96ZM45.7578 25V11.66H48.1978L55.4778 21.62L54.6978 23.22V11.66H57.2178V25H55.0178L47.5578 15L48.2978 13.78V25H45.7578ZM59.0109 25L64.1309 11.66H67.0709L71.9509 25H69.1509L64.7909 12.58L65.9909 12.48L61.6309 25H59.0109ZM61.7109 21.74L62.3509 19.66H68.5709L68.7909 21.74H61.7109ZM78.0261 25.24C77.3461 25.24 76.7394 25.2067 76.2061 25.14C75.6861 25.0733 75.2061 24.9667 74.7661 24.82C74.3394 24.6733 73.9061 24.4867 73.4661 24.26V21.64C74.0261 22.0933 74.6794 22.4533 75.4261 22.72C76.1861 22.9733 76.9594 23.1 77.7461 23.1C78.4661 23.1 79.0061 22.96 79.3661 22.68C79.7394 22.3867 79.9261 21.9667 79.9261 21.42C79.9261 21.0067 79.7728 20.6733 79.4661 20.42C79.1728 20.1667 78.7794 19.9467 78.2861 19.76C77.7928 19.5733 77.2528 19.38 76.6661 19.18C76.2528 19.0333 75.8461 18.8733 75.4461 18.7C75.0594 18.5133 74.7061 18.28 74.3861 18C74.0794 17.72 73.8328 17.3733 73.6461 16.96C73.4594 16.5333 73.3661 16.0133 73.3661 15.4C73.3661 14.9067 73.4594 14.42 73.6461 13.94C73.8328 13.46 74.1194 13.0333 74.5061 12.66C74.8928 12.2733 75.3928 11.9667 76.0061 11.74C76.6194 11.5133 77.3528 11.4 78.2061 11.4C78.7394 11.4 79.2061 11.4333 79.6061 11.5C80.0194 11.5667 80.4128 11.6667 80.7861 11.8C81.1594 11.9333 81.5461 12.1 81.9461 12.3V14.92C81.6261 14.6933 81.2861 14.48 80.9261 14.28C80.5661 14.0667 80.1794 13.8933 79.7661 13.76C79.3661 13.6267 78.9328 13.5533 78.4661 13.54C77.9861 13.5267 77.5728 13.58 77.2261 13.7C76.8794 13.82 76.6128 14 76.4261 14.24C76.2394 14.48 76.1461 14.7667 76.1461 15.1C76.1461 15.5133 76.2594 15.8467 76.4861 16.1C76.7128 16.34 77.0328 16.54 77.4461 16.7C77.8594 16.86 78.3328 17.0267 78.8661 17.2C79.3861 17.36 79.8728 17.54 80.3261 17.74C80.7928 17.9267 81.1994 18.1667 81.5461 18.46C81.9061 18.7533 82.1861 19.1133 82.3861 19.54C82.5994 19.9667 82.7061 20.4867 82.7061 21.1C82.7061 21.8467 82.5328 22.5333 82.1861 23.16C81.8394 23.7867 81.3194 24.2933 80.6261 24.68C79.9461 25.0533 79.0794 25.24 78.0261 25.24ZM85.1523 25V11.66H94.0923V13.84H87.8723V17.22H93.2723V19.42H87.8723V22.82H94.0923V25H85.1523ZM99.9097 25V13.84H95.8697V11.66H106.69V13.84H102.63V25H99.9097ZM108.629 25V11.66H114.829C116.282 11.66 117.402 12.0067 118.189 12.7C118.989 13.38 119.389 14.4067 119.389 15.78C119.389 16.42 119.256 17.0333 118.989 17.62C118.736 18.1933 118.356 18.6733 117.849 19.06C117.356 19.4467 116.749 19.6867 116.029 19.78L116.049 18.9L120.069 25H116.649L113.129 19.1L114.349 20.18H111.349V25H108.629ZM111.349 18.1H114.249C114.982 18.1 115.542 17.9267 115.929 17.58C116.316 17.22 116.509 16.6667 116.509 15.92C116.509 15.2533 116.349 14.74 116.029 14.38C115.709 14.02 115.202 13.84 114.509 13.84H111.349V18.1ZM122.359 25V11.66H125.079V25H122.359ZM128.082 25V11.66H133.102C135.315 11.66 136.949 12.22 138.002 13.34C139.069 14.46 139.602 16.12 139.602 18.32C139.602 20.52 139.069 22.1867 138.002 23.32C136.949 24.44 135.315 25 133.102 25H128.082ZM130.802 22.82H132.802C134.149 22.82 135.155 22.4667 135.822 21.76C136.489 21.04 136.822 19.8933 136.822 18.32C136.822 16.76 136.489 15.62 135.822 14.9C135.155 14.18 134.149 13.82 132.802 13.82H130.802V22.82ZM126.702 19.14V17.52H132.362V19.14H126.702Z" fill="#AC0B11"/>
<path d="M1 27.5H142.019C142.323 27.5 142.61 27.3619 142.8 27.1247L143.802 25.8724C144.174 25.407 144.869 25.3686 145.29 25.79L146.207 26.7071C146.395 26.8946 146.649 27 146.914 27H149.559C149.832 27 150.086 27.1437 150.227 27.3785V27.3785C150.619 28.0321 151.62 27.7924 151.673 27.032L153.5 1L155 36.5L156.361 28.3356C156.441 27.8534 156.858 27.5 157.347 27.5H161.586C161.851 27.5 162.105 27.3946 162.293 27.2071L165.793 23.7071C166.183 23.3166 166.817 23.3166 167.207 23.7071L170.286 26.7859C170.426 26.9255 170.603 27.0207 170.797 27.0594L172.594 27.4188C172.854 27.4708 173.124 27.4174 173.345 27.2702L173.818 26.9547C174.215 26.6903 174.743 26.7426 175.08 27.0797L175.207 27.2071C175.395 27.3946 175.649 27.5 175.914 27.5H186.5" stroke="#AC0B11" stroke-linecap="round"/>
</svg>
