<svg xmlns="http://www.w3.org/2000/svg" xmlns:xlink="http://www.w3.org/1999/xlink" width="559" zoomAndPan="magnify" viewBox="0 0 419.25 297.75" height="396" preserveAspectRatio="xMidYMid meet" version="1.0"><defs><clipPath id="853568c1a2"><path d="M 0 0.140625 L 418.5 0.140625 L 418.5 297.359375 L 0 297.359375 Z M 0 0.140625 " clip-rule="nonzero"/></clipPath><clipPath id="dc256c52ce"><path d="M 68.261719 6.339844 L 352.136719 6.339844 L 352.136719 290.210938 L 68.261719 290.210938 Z M 68.261719 6.339844 " clip-rule="nonzero"/></clipPath><clipPath id="d92d49ce5d"><path d="M 210.199219 6.339844 C 131.808594 6.339844 68.261719 69.886719 68.261719 148.277344 C 68.261719 226.664062 131.808594 290.210938 210.199219 290.210938 C 288.585938 290.210938 352.136719 226.664062 352.136719 148.277344 C 352.136719 69.886719 288.585938 6.339844 210.199219 6.339844 Z M 210.199219 6.339844 " clip-rule="nonzero"/></clipPath><clipPath id="1c89ba7342"><path d="M 6.664062 0.140625 L 413.714844 0.140625 L 413.714844 297.359375 L 6.664062 297.359375 Z M 6.664062 0.140625 " clip-rule="nonzero"/></clipPath><clipPath id="d30d669e75"><path d="M 210.1875 -54.832031 C 97.785156 -54.832031 6.664062 36.289062 6.664062 148.691406 C 6.664062 261.09375 97.785156 352.214844 210.1875 352.214844 C 322.59375 352.214844 413.714844 261.09375 413.714844 148.691406 C 413.714844 36.289062 322.59375 -54.832031 210.1875 -54.832031 Z M 210.1875 -54.832031 " clip-rule="nonzero"/></clipPath><clipPath id="6f3e2fd86a"><path d="M 363.257812 17.066406 L 418.5 17.066406 L 418.5 69.203125 L 363.257812 69.203125 Z M 363.257812 17.066406 " clip-rule="nonzero"/></clipPath></defs><g clip-path="url(#853568c1a2)"><path fill="#ffffff" d="M 0 0.140625 L 418.5 0.140625 L 418.5 297.359375 L 0 297.359375 Z M 0 0.140625 " fill-opacity="1" fill-rule="nonzero"/><path fill="#ffffff" d="M 0 0.140625 L 418.5 0.140625 L 418.5 297.359375 L 0 297.359375 Z M 0 0.140625 " fill-opacity="1" fill-rule="nonzero"/></g><g clip-path="url(#dc256c52ce)"><g clip-path="url(#d92d49ce5d)"><path fill="#ac0b11" d="M 68.261719 6.339844 L 352.136719 6.339844 L 352.136719 290.210938 L 68.261719 290.210938 Z M 68.261719 6.339844 " fill-opacity="1" fill-rule="nonzero"/></g></g><path stroke-linecap="butt" transform="matrix(0.748661, 0, 0, 0.748661, 165.086494, 58.542755)" fill="none" stroke-linejoin="miter" d="M -0.000743371 3.000435 L 301.068142 3.000435 " stroke="#d68b8e" stroke-width="6" stroke-opacity="1" stroke-miterlimit="4"/><path stroke-linecap="butt" transform="matrix(0.748661, 0, 0, 0.748661, 165.086494, 79.406225)" fill="none" stroke-linejoin="miter" d="M -0.000743371 3.000183 L 301.068142 3.000183 " stroke="#d68b8e" stroke-width="6" stroke-opacity="1" stroke-miterlimit="4"/><path stroke-linecap="butt" transform="matrix(0.748661, 0, 0, 0.748661, 165.086494, 100.269673)" fill="none" stroke-linejoin="miter" d="M -0.000743371 2.99996 L 301.068142 2.99996 " stroke="#d68b8e" stroke-width="6" stroke-opacity="1" stroke-miterlimit="4"/><path stroke-linecap="butt" transform="matrix(0.748661, 0, 0, 0.748661, 165.086494, 121.13315)" fill="none" stroke-linejoin="miter" d="M -0.000743371 2.999698 L 301.068142 2.999698 " stroke="#d68b8e" stroke-width="6" stroke-opacity="1" stroke-miterlimit="4"/><path stroke-linecap="butt" transform="matrix(0.748661, 0, 0, 0.748661, 165.086494, 141.996606)" fill="none" stroke-linejoin="miter" d="M -0.000743371 2.999465 L 301.068142 2.999465 " stroke="#d68b8e" stroke-width="6" stroke-opacity="1" stroke-miterlimit="4"/><path stroke-linecap="butt" transform="matrix(0.748661, 0, 0, 0.748661, 165.086494, 162.860068)" fill="none" stroke-linejoin="miter" d="M -0.000743371 2.999223 L 301.068142 2.999223 " stroke="#d68b8e" stroke-width="6" stroke-opacity="1" stroke-miterlimit="4"/><path stroke-linecap="butt" transform="matrix(0.748661, 0, 0, 0.748661, 165.086494, 183.723517)" fill="none" stroke-linejoin="miter" d="M -0.000743371 2.999 L 301.068142 2.999 " stroke="#d68b8e" stroke-width="6" stroke-opacity="1" stroke-miterlimit="4"/><path stroke-linecap="butt" transform="matrix(0.748661, 0, 0, 0.748661, 165.086494, 204.586994)" fill="none" stroke-linejoin="miter" d="M -0.000743371 2.998738 L 301.068142 2.998738 " stroke="#d68b8e" stroke-width="6" stroke-opacity="1" stroke-miterlimit="4"/><path stroke-linecap="butt" transform="matrix(0.748661, 0, 0, 0.748661, 165.086494, 37.679297)" fill="none" stroke-linejoin="miter" d="M -0.000743371 3.00067 L 301.068142 3.00067 " stroke="#d68b8e" stroke-width="6" stroke-opacity="1" stroke-miterlimit="4"/><path stroke-linecap="butt" transform="matrix(0.748661, 0, 0, 0.748661, 97.500237, 254.13653)" fill="none" stroke-linejoin="miter" d="M -0.000316434 3.000402 L 301.068569 3.000402 " stroke="#d68b8e" stroke-width="6" stroke-opacity="1" stroke-miterlimit="4"/><path stroke-linecap="butt" transform="matrix(0.748661, 0, 0, 0.748661, 97.500237, 274.999978)" fill="none" stroke-linejoin="miter" d="M -0.000316434 3.000179 L 301.068569 3.000179 " stroke="#d68b8e" stroke-width="6" stroke-opacity="1" stroke-miterlimit="4"/><g clip-path="url(#1c89ba7342)"><g clip-path="url(#d30d669e75)"><path stroke-linecap="butt" transform="matrix(0.748661, 0, 0, 0.748661, 6.664723, -54.833255)" fill="none" stroke-linejoin="miter" d="M 271.849158 0.00163408 C 121.711257 0.00163408 -0.000882643 121.713774 -0.000882643 271.851675 C -0.000882643 421.989577 121.711257 543.701716 271.849158 543.701716 C 421.992277 543.701716 543.704417 421.989577 543.704417 271.851675 C 543.704417 121.713774 421.992277 0.00163408 271.849158 0.00163408 Z M 271.849158 0.00163408 " stroke="#ffffff" stroke-width="166" stroke-opacity="1" stroke-miterlimit="4"/></g></g><g clip-path="url(#6f3e2fd86a)"><path fill="#ffffff" d="M 363.257812 17.066406 L 425.375 17.066406 L 425.375 69.203125 L 363.257812 69.203125 Z M 363.257812 17.066406 " fill-opacity="1" fill-rule="nonzero"/></g></svg>