<svg width="187" height="37" viewBox="0 0 187 37" fill="none" xmlns="http://www.w3.org/2000/svg">
<path d="M1 27.5H142.019C142.323 27.5 142.61 27.3619 142.8 27.1247L143.802 25.8724C144.174 25.407 144.869 25.3686 145.29 25.79L146.207 26.7071C146.395 26.8946 146.649 27 146.914 27H149.559C149.832 27 150.086 27.1437 150.227 27.3785V27.3785C150.619 28.0321 151.62 27.7924 151.673 27.032L153.5 1L155 36.5L156.361 28.3356C156.441 27.8534 156.858 27.5 157.347 27.5H161.586C161.851 27.5 162.105 27.3946 162.293 27.2071L165.793 23.7071C166.183 23.3166 166.817 23.3166 167.207 23.7071L170.286 26.7859C170.426 26.9255 170.603 27.0207 170.797 27.0594L172.594 27.4188C172.854 27.4708 173.124 27.4174 173.345 27.2702L173.818 26.9547C174.215 26.6903 174.743 26.7426 175.08 27.0797L175.207 27.2071C175.395 27.3946 175.649 27.5 175.914 27.5H186.5" stroke="#AC0B11" stroke-linecap="round"/>
</svg>
